<svg width="132" height="544" viewBox="0 0 132 544" fill="none" xmlns="http://www.w3.org/2000/svg">
<path d="M0.5 49.5C0.5 48.9477 0.947714 48.5 1.5 48.5H110.5C111.052 48.5 111.5 48.9477 111.5 49.5V216.5C111.5 217.052 111.052 217.5 110.5 217.5H1.5C0.947715 217.5 0.5 217.052 0.5 216.5V49.5Z" stroke="#0E0F12" style="stroke:#0E0F12;stroke:color(display-p3 0.0549 0.0588 0.0706);stroke-opacity:1;"/>
<rect x="0.5" y="223.5" width="111" height="310" rx="1" stroke="#0E0F12" style="stroke:#0E0F12;stroke:color(display-p3 0.0549 0.0588 0.0706);stroke-opacity:1;"/>
<rect x="4.5" y="217.5" width="103" height="6" stroke="#0E0F12" style="stroke:#0E0F12;stroke:color(display-p3 0.0549 0.0588 0.0706);stroke-opacity:1;"/>
<rect x="23.5" y="533.5" width="65" height="4" stroke="#0E0F12" style="stroke:#0E0F12;stroke:color(display-p3 0.0549 0.0588 0.0706);stroke-opacity:1;"/>
<rect x="0.5" y="537.5" width="111" height="6" rx="1" stroke="#0E0F12" style="stroke:#0E0F12;stroke:color(display-p3 0.0549 0.0588 0.0706);stroke-opacity:1;"/>
<path d="M65 20.0083C64.7613 19.9894 64.2402 20.0084 64 20.0084C58.6667 20.1751 51.2734 20.0085 46 20.0084C42.0013 20.0083 41 27.2506 41 29.5084C41 31.7662 41.4987 34.0085 42.4987 38.0085C43.2987 41.2085 43.832 46.3418 43.9987 48.5085C49.2236 48.5085 57.4324 48.5317 62.5 48.5327M65 20.0083C67.8588 20.2349 70 22.3747 70 29.0084C70 37.5084 66.9747 39.3522 66.9987 48.5085C66.9987 48.5274 65.1928 48.5332 62.5 48.5327M65 20.0083C62.7809 20.9811 60.5 23.5084 60.5 28.5084C60.5 35.0084 62.5 42.057 62.5 48.5327" stroke="#0E0F12" style="stroke:#0E0F12;stroke:color(display-p3 0.0549 0.0588 0.0706);stroke-opacity:1;"/>
<line x1="4.375" y1="49" x2="4.37499" y2="217" stroke="#D3D3D3" style="stroke:#D3D3D3;stroke:color(display-p3 0.8275 0.8275 0.8275);stroke-opacity:1;" stroke-width="0.75"/>
<line x1="8.375" y1="49" x2="8.37499" y2="217" stroke="#D3D3D3" style="stroke:#D3D3D3;stroke:color(display-p3 0.8275 0.8275 0.8275);stroke-opacity:1;" stroke-width="0.75"/>
<line x1="12.375" y1="49" x2="12.375" y2="217" stroke="#D3D3D3" style="stroke:#D3D3D3;stroke:color(display-p3 0.8275 0.8275 0.8275);stroke-opacity:1;" stroke-width="0.75"/>
<line x1="16.375" y1="49" x2="16.375" y2="217" stroke="#D3D3D3" style="stroke:#D3D3D3;stroke:color(display-p3 0.8275 0.8275 0.8275);stroke-opacity:1;" stroke-width="0.75"/>
<line x1="20.375" y1="49" x2="20.375" y2="217" stroke="#D3D3D3" style="stroke:#D3D3D3;stroke:color(display-p3 0.8275 0.8275 0.8275);stroke-opacity:1;" stroke-width="0.75"/>
<line x1="24.375" y1="49" x2="24.375" y2="217" stroke="#D3D3D3" style="stroke:#D3D3D3;stroke:color(display-p3 0.8275 0.8275 0.8275);stroke-opacity:1;" stroke-width="0.75"/>
<line x1="28.375" y1="49" x2="28.375" y2="217" stroke="#D3D3D3" style="stroke:#D3D3D3;stroke:color(display-p3 0.8275 0.8275 0.8275);stroke-opacity:1;" stroke-width="0.75"/>
<line x1="32.375" y1="49" x2="32.375" y2="217" stroke="#D3D3D3" style="stroke:#D3D3D3;stroke:color(display-p3 0.8275 0.8275 0.8275);stroke-opacity:1;" stroke-width="0.75"/>
<line x1="36.375" y1="49" x2="36.375" y2="217" stroke="#D3D3D3" style="stroke:#D3D3D3;stroke:color(display-p3 0.8275 0.8275 0.8275);stroke-opacity:1;" stroke-width="0.75"/>
<line x1="40.375" y1="49" x2="40.375" y2="217" stroke="#D3D3D3" style="stroke:#D3D3D3;stroke:color(display-p3 0.8275 0.8275 0.8275);stroke-opacity:1;" stroke-width="0.75"/>
<line x1="44.375" y1="49" x2="44.375" y2="217" stroke="#D3D3D3" style="stroke:#D3D3D3;stroke:color(display-p3 0.8275 0.8275 0.8275);stroke-opacity:1;" stroke-width="0.75"/>
<line x1="48.375" y1="49" x2="48.375" y2="217" stroke="#D3D3D3" style="stroke:#D3D3D3;stroke:color(display-p3 0.8275 0.8275 0.8275);stroke-opacity:1;" stroke-width="0.75"/>
<line x1="52.375" y1="49" x2="52.375" y2="217" stroke="#D3D3D3" style="stroke:#D3D3D3;stroke:color(display-p3 0.8275 0.8275 0.8275);stroke-opacity:1;" stroke-width="0.75"/>
<line x1="56.375" y1="49" x2="56.375" y2="217" stroke="#D3D3D3" style="stroke:#D3D3D3;stroke:color(display-p3 0.8275 0.8275 0.8275);stroke-opacity:1;" stroke-width="0.75"/>
<line x1="60.375" y1="49" x2="60.375" y2="217" stroke="#D3D3D3" style="stroke:#D3D3D3;stroke:color(display-p3 0.8275 0.8275 0.8275);stroke-opacity:1;" stroke-width="0.75"/>
<line x1="64.375" y1="49" x2="64.375" y2="217" stroke="#D3D3D3" style="stroke:#D3D3D3;stroke:color(display-p3 0.8275 0.8275 0.8275);stroke-opacity:1;" stroke-width="0.75"/>
<line x1="68.375" y1="49" x2="68.375" y2="217" stroke="#D3D3D3" style="stroke:#D3D3D3;stroke:color(display-p3 0.8275 0.8275 0.8275);stroke-opacity:1;" stroke-width="0.75"/>
<line x1="72.375" y1="49" x2="72.375" y2="217" stroke="#D3D3D3" style="stroke:#D3D3D3;stroke:color(display-p3 0.8275 0.8275 0.8275);stroke-opacity:1;" stroke-width="0.75"/>
<line x1="76.375" y1="49" x2="76.375" y2="217" stroke="#D3D3D3" style="stroke:#D3D3D3;stroke:color(display-p3 0.8275 0.8275 0.8275);stroke-opacity:1;" stroke-width="0.75"/>
<line x1="80.375" y1="49" x2="80.375" y2="217" stroke="#D3D3D3" style="stroke:#D3D3D3;stroke:color(display-p3 0.8275 0.8275 0.8275);stroke-opacity:1;" stroke-width="0.75"/>
<line x1="84.375" y1="49" x2="84.375" y2="217" stroke="#D3D3D3" style="stroke:#D3D3D3;stroke:color(display-p3 0.8275 0.8275 0.8275);stroke-opacity:1;" stroke-width="0.75"/>
<line x1="88.375" y1="49" x2="88.375" y2="217" stroke="#D3D3D3" style="stroke:#D3D3D3;stroke:color(display-p3 0.8275 0.8275 0.8275);stroke-opacity:1;" stroke-width="0.75"/>
<line x1="92.375" y1="49" x2="92.375" y2="217" stroke="#D3D3D3" style="stroke:#D3D3D3;stroke:color(display-p3 0.8275 0.8275 0.8275);stroke-opacity:1;" stroke-width="0.75"/>
<line x1="96.375" y1="49" x2="96.375" y2="217" stroke="#D3D3D3" style="stroke:#D3D3D3;stroke:color(display-p3 0.8275 0.8275 0.8275);stroke-opacity:1;" stroke-width="0.75"/>
<line x1="100.375" y1="49" x2="100.375" y2="217" stroke="#D3D3D3" style="stroke:#D3D3D3;stroke:color(display-p3 0.8275 0.8275 0.8275);stroke-opacity:1;" stroke-width="0.75"/>
<line x1="104.375" y1="49" x2="104.375" y2="217" stroke="#D3D3D3" style="stroke:#D3D3D3;stroke:color(display-p3 0.8275 0.8275 0.8275);stroke-opacity:1;" stroke-width="0.75"/>
<line x1="108.375" y1="49" x2="108.375" y2="217" stroke="#D3D3D3" style="stroke:#D3D3D3;stroke:color(display-p3 0.8275 0.8275 0.8275);stroke-opacity:1;" stroke-width="0.75"/>
<line x1="4.375" y1="538" x2="4.375" y2="543" stroke="#D3D3D3" style="stroke:#D3D3D3;stroke:color(display-p3 0.8275 0.8275 0.8275);stroke-opacity:1;" stroke-width="0.75"/>
<line x1="8.375" y1="538" x2="8.375" y2="543" stroke="#D3D3D3" style="stroke:#D3D3D3;stroke:color(display-p3 0.8275 0.8275 0.8275);stroke-opacity:1;" stroke-width="0.75"/>
<line x1="12.375" y1="538" x2="12.375" y2="543" stroke="#D3D3D3" style="stroke:#D3D3D3;stroke:color(display-p3 0.8275 0.8275 0.8275);stroke-opacity:1;" stroke-width="0.75"/>
<line x1="16.375" y1="538" x2="16.375" y2="543" stroke="#D3D3D3" style="stroke:#D3D3D3;stroke:color(display-p3 0.8275 0.8275 0.8275);stroke-opacity:1;" stroke-width="0.75"/>
<line x1="20.375" y1="538" x2="20.375" y2="543" stroke="#D3D3D3" style="stroke:#D3D3D3;stroke:color(display-p3 0.8275 0.8275 0.8275);stroke-opacity:1;" stroke-width="0.75"/>
<line x1="24.375" y1="538" x2="24.375" y2="543" stroke="#D3D3D3" style="stroke:#D3D3D3;stroke:color(display-p3 0.8275 0.8275 0.8275);stroke-opacity:1;" stroke-width="0.75"/>
<line x1="28.375" y1="538" x2="28.375" y2="543" stroke="#D3D3D3" style="stroke:#D3D3D3;stroke:color(display-p3 0.8275 0.8275 0.8275);stroke-opacity:1;" stroke-width="0.75"/>
<line x1="32.375" y1="538" x2="32.375" y2="543" stroke="#D3D3D3" style="stroke:#D3D3D3;stroke:color(display-p3 0.8275 0.8275 0.8275);stroke-opacity:1;" stroke-width="0.75"/>
<line x1="36.375" y1="538" x2="36.375" y2="543" stroke="#D3D3D3" style="stroke:#D3D3D3;stroke:color(display-p3 0.8275 0.8275 0.8275);stroke-opacity:1;" stroke-width="0.75"/>
<line x1="40.375" y1="538" x2="40.375" y2="543" stroke="#D3D3D3" style="stroke:#D3D3D3;stroke:color(display-p3 0.8275 0.8275 0.8275);stroke-opacity:1;" stroke-width="0.75"/>
<line x1="44.375" y1="538" x2="44.375" y2="543" stroke="#D3D3D3" style="stroke:#D3D3D3;stroke:color(display-p3 0.8275 0.8275 0.8275);stroke-opacity:1;" stroke-width="0.75"/>
<line x1="48.375" y1="538" x2="48.375" y2="543" stroke="#D3D3D3" style="stroke:#D3D3D3;stroke:color(display-p3 0.8275 0.8275 0.8275);stroke-opacity:1;" stroke-width="0.75"/>
<line x1="52.375" y1="538" x2="52.375" y2="543" stroke="#D3D3D3" style="stroke:#D3D3D3;stroke:color(display-p3 0.8275 0.8275 0.8275);stroke-opacity:1;" stroke-width="0.75"/>
<line x1="56.375" y1="538" x2="56.375" y2="543" stroke="#D3D3D3" style="stroke:#D3D3D3;stroke:color(display-p3 0.8275 0.8275 0.8275);stroke-opacity:1;" stroke-width="0.75"/>
<line x1="60.375" y1="538" x2="60.375" y2="543" stroke="#D3D3D3" style="stroke:#D3D3D3;stroke:color(display-p3 0.8275 0.8275 0.8275);stroke-opacity:1;" stroke-width="0.75"/>
<line x1="64.375" y1="538" x2="64.375" y2="543" stroke="#D3D3D3" style="stroke:#D3D3D3;stroke:color(display-p3 0.8275 0.8275 0.8275);stroke-opacity:1;" stroke-width="0.75"/>
<line x1="68.375" y1="538" x2="68.375" y2="543" stroke="#D3D3D3" style="stroke:#D3D3D3;stroke:color(display-p3 0.8275 0.8275 0.8275);stroke-opacity:1;" stroke-width="0.75"/>
<line x1="72.375" y1="538" x2="72.375" y2="543" stroke="#D3D3D3" style="stroke:#D3D3D3;stroke:color(display-p3 0.8275 0.8275 0.8275);stroke-opacity:1;" stroke-width="0.75"/>
<line x1="76.375" y1="538" x2="76.375" y2="543" stroke="#D3D3D3" style="stroke:#D3D3D3;stroke:color(display-p3 0.8275 0.8275 0.8275);stroke-opacity:1;" stroke-width="0.75"/>
<line x1="80.375" y1="538" x2="80.375" y2="543" stroke="#D3D3D3" style="stroke:#D3D3D3;stroke:color(display-p3 0.8275 0.8275 0.8275);stroke-opacity:1;" stroke-width="0.75"/>
<line x1="84.375" y1="538" x2="84.375" y2="543" stroke="#D3D3D3" style="stroke:#D3D3D3;stroke:color(display-p3 0.8275 0.8275 0.8275);stroke-opacity:1;" stroke-width="0.75"/>
<line x1="88.375" y1="538" x2="88.375" y2="543" stroke="#D3D3D3" style="stroke:#D3D3D3;stroke:color(display-p3 0.8275 0.8275 0.8275);stroke-opacity:1;" stroke-width="0.75"/>
<line x1="92.375" y1="538" x2="92.375" y2="543" stroke="#D3D3D3" style="stroke:#D3D3D3;stroke:color(display-p3 0.8275 0.8275 0.8275);stroke-opacity:1;" stroke-width="0.75"/>
<line x1="96.375" y1="538" x2="96.375" y2="543" stroke="#D3D3D3" style="stroke:#D3D3D3;stroke:color(display-p3 0.8275 0.8275 0.8275);stroke-opacity:1;" stroke-width="0.75"/>
<line x1="100.375" y1="538" x2="100.375" y2="543" stroke="#D3D3D3" style="stroke:#D3D3D3;stroke:color(display-p3 0.8275 0.8275 0.8275);stroke-opacity:1;" stroke-width="0.75"/>
<line x1="104.375" y1="538" x2="104.375" y2="543" stroke="#D3D3D3" style="stroke:#D3D3D3;stroke:color(display-p3 0.8275 0.8275 0.8275);stroke-opacity:1;" stroke-width="0.75"/>
<line x1="108.375" y1="538" x2="108.375" y2="543" stroke="#D3D3D3" style="stroke:#D3D3D3;stroke:color(display-p3 0.8275 0.8275 0.8275);stroke-opacity:1;" stroke-width="0.75"/>
<mask id="path-61-inside-1_0_1" fill="white">
<path d="M122 48H132V544H122V48Z"/>
</mask>
<path d="M132 48H133V47H132V48ZM132 544V545H133V544H132ZM122 49H132V47H122V49ZM131 48V544H133V48H131ZM132 543H122V545H132V543Z" fill="#D3D3D3" style="fill:#D3D3D3;fill:color(display-p3 0.8275 0.8275 0.8275);fill-opacity:1;" mask="url(#path-61-inside-1_0_1)"/>
<mask id="path-63-inside-2_0_1" fill="white">
<path d="M0 10L-4.37114e-07 0L112 -4.89568e-06L112 10L0 10Z"/>
</mask>
<path d="M-4.37114e-07 0L-4.80825e-07 -1L-1 -1L-1 4.37114e-08L-4.37114e-07 0ZM112 -4.89568e-06L113 -4.93939e-06L113 -1L112 -1L112 -4.89568e-06ZM1 10L1 -4.37114e-08L-1 4.37114e-08L-1 10L1 10ZM-3.93402e-07 1L112 0.999995L112 -1L-4.80825e-07 -1L-3.93402e-07 1ZM111 -4.85196e-06L111 10L113 10L113 -4.93939e-06L111 -4.85196e-06Z" fill="#D3D3D3" style="fill:#D3D3D3;fill:color(display-p3 0.8275 0.8275 0.8275);fill-opacity:1;" mask="url(#path-63-inside-2_0_1)"/>
</svg>
